<svg width="24" height="24" viewBox="0 0 24 24" fill="none" xmlns="http://www.w3.org/2000/svg">
<path opacity="0.4" fill-rule="evenodd" clip-rule="evenodd" d="M5.91064 20.5882C5.91064 19.7482 6.59064 19.0682 7.43064 19.0682C8.26064 19.0682 8.94064 19.7482 8.94064 20.5882C8.94064 21.4182 8.26064 22.0982 7.43064 22.0982C6.59064 22.0982 5.91064 21.4182 5.91064 20.5882ZM17.1606 20.5882C17.1606 19.7482 17.8406 19.0682 18.6806 19.0682C19.5106 19.0682 20.1906 19.7482 20.1906 20.5882C20.1906 21.4182 19.5106 22.0982 18.6806 22.0982C17.8406 22.0982 17.1606 21.4182 17.1606 20.5882Z" fill="white"/>
<path fill-rule="evenodd" clip-rule="evenodd" d="M20.1907 6.3487C20.8007 6.3487 21.2007 6.5587 21.6007 7.0187C22.0007 7.4787 22.0707 8.1387 21.9807 8.7377L21.0307 15.2977C20.8507 16.5587 19.7707 17.4877 18.5007 17.4877H7.59074C6.26074 17.4877 5.16074 16.4677 5.05074 15.1487L4.13074 4.2477L2.62074 3.9877C2.22074 3.9177 1.94074 3.5277 2.01074 3.1277C2.08074 2.7177 2.47074 2.4477 2.88074 2.5077L5.26574 2.8677C5.60574 2.9287 5.85574 3.2077 5.88574 3.5477L6.07574 5.7877C6.10574 6.1087 6.36574 6.3487 6.68574 6.3487H20.1907ZM14.1307 11.5477H16.9007C17.3207 11.5477 17.6507 11.2077 17.6507 10.7977C17.6507 10.3777 17.3207 10.0477 16.9007 10.0477H14.1307C13.7107 10.0477 13.3807 10.3777 13.3807 10.7977C13.3807 11.2077 13.7107 11.5477 14.1307 11.5477Z" fill="white"/>
</svg>
